<svg width="120" height="21" viewBox="0 0 120 21" fill="none" xmlns="http://www.w3.org/2000/svg">
<path d="M2.33946 7.73722C2.52373 7.56015 2.6692 7.42615 2.80983 7.29693C3.98818 6.19145 5.3799 5.52146 6.98983 5.33003C9.64233 5.01896 11.8923 5.82295 13.7108 7.76114C14.8164 8.93842 15.505 10.3263 15.7184 11.9151C16.0675 14.5185 15.3983 16.8108 13.4974 18.7059C12.353 19.8497 11.0001 20.6106 9.38047 20.8643C6.84435 21.2567 4.55554 20.7016 2.55767 19.084C2.39765 18.9548 2.24733 18.8064 2.0873 18.6725C1.50055 18.1891 1.17081 17.5335 0.86046 16.873C0.44828 16.0021 0.157329 15.0928 0.0264011 14.1404C0.0118536 14.0304 0.00215519 13.9251 0.00215519 13.815C0.00215519 9.36434 0.00215519 4.91846 0.00215519 0.467796C0.00215519 0.405582 -0.00269399 0.338583 0.00215519 0.27637C0.0264011 0.0801575 0.103988 0.00358925 0.302804 0.00358925C0.879857 -0.00119642 1.45691 -0.00119642 2.02911 0.00358925C2.23278 0.00358925 2.30552 0.0849449 2.32976 0.281157C2.33946 0.362513 2.33461 0.443868 2.33461 0.525225C2.33461 2.81756 2.33461 5.10989 2.33461 7.40222C2.33946 7.49793 2.33946 7.59365 2.33946 7.73722ZM7.81419 18.7586C8.33305 18.7634 8.87616 18.706 9.40472 18.548C11.6887 17.8732 13.3423 15.7771 13.4441 13.4178C13.5217 11.5514 12.8525 9.98169 11.4511 8.74699C10.1612 7.608 8.61915 7.19644 6.91709 7.47879C5.18593 7.76593 3.81846 8.63692 2.93591 10.1588C2.16974 11.4796 2.04851 12.9057 2.32976 14.3797C2.74679 16.5763 4.87558 18.8112 7.81419 18.7586Z" fill="#0F0F0F"/>
<path d="M21.0671 13.4887C21.1059 14.3692 21.2757 15.1828 21.6733 15.9389C22.4055 17.3364 23.5014 18.3413 25.0774 18.6955C27.051 19.1358 28.8307 18.6763 30.3679 17.3746C30.78 17.0253 31.0904 16.585 31.391 16.1399C31.522 15.9437 31.648 15.7427 31.7741 15.5465C31.905 15.3455 31.9826 15.3216 32.2057 15.4317C32.3706 15.513 32.5257 15.5992 32.6906 15.6853C32.9961 15.848 33.3065 16.0059 33.612 16.1686C33.8302 16.2883 33.8641 16.3697 33.7623 16.5802C32.6567 18.7864 30.9401 20.2556 28.4718 20.7868C26.954 21.1122 25.4363 21.0548 23.9427 20.6193C22.6189 20.2317 21.523 19.4995 20.6404 18.4466C19.5833 17.1832 18.9044 15.7571 18.725 14.1252C18.4631 11.7323 19.1178 9.60751 20.7083 7.7746C22.0176 6.26712 23.6857 5.45834 25.6836 5.29084C27.0074 5.17599 28.307 5.3052 29.529 5.81727C31.8663 6.79833 33.3549 8.52595 34.0193 10.9427C34.2084 11.6318 34.2957 12.3401 34.3054 13.058C34.3054 13.1298 34.3102 13.2015 34.3005 13.2733C34.286 13.3977 34.2084 13.4695 34.0823 13.4791C33.9902 13.4839 33.8981 13.4839 33.8059 13.4839C29.6696 13.4839 25.5381 13.4839 21.4017 13.4839C21.3048 13.4887 21.2029 13.4887 21.0671 13.4887ZM31.7256 11.4308C31.4832 10.5886 31.1631 9.80372 30.5424 9.18637C28.9955 7.64539 27.1189 7.16203 25.0095 7.6741C23.3754 8.07131 22.2697 9.13373 21.6248 10.6604C21.5181 10.9044 21.4066 11.1533 21.3533 11.4308C24.8107 11.4308 28.2585 11.4308 31.7256 11.4308Z" fill="#0F0F0F"/>
<path d="M73.147 13.4887C71.0715 13.4887 68.9961 13.4887 66.9207 13.4887C66.6152 13.4887 66.6055 13.4121 66.6394 13.795C66.7509 15.0009 67.1486 16.0969 67.9535 17.0301C68.7391 17.9346 69.7041 18.5663 70.9115 18.7577C72.7881 19.0592 74.4708 18.6141 75.9158 17.3842C76.4007 16.9679 76.7596 16.4367 77.1087 15.9054C77.1911 15.7762 77.2687 15.6422 77.356 15.5178C77.4627 15.3599 77.5548 15.3264 77.7246 15.4173C78.2192 15.6709 78.7138 15.9294 79.1987 16.1926C79.3927 16.2979 79.4121 16.384 79.3102 16.5946C79.0823 17.0588 78.8156 17.4991 78.5053 17.9154C77.2105 19.6526 75.4746 20.6433 73.3118 20.9113C72.1141 21.0596 70.9212 21.0022 69.7477 20.6959C68.39 20.3418 67.2504 19.6526 66.3291 18.6093C65.1944 17.322 64.467 15.848 64.2779 14.1443C64.0112 11.7563 64.661 9.62664 66.2466 7.78894C67.5607 6.27188 69.2337 5.45832 71.2461 5.29082C72.5699 5.18075 73.8695 5.30518 75.0915 5.82203C77.4191 6.80309 78.9029 8.52593 79.5672 10.9283C79.7612 11.627 79.8485 12.3449 79.8533 13.0675C79.8533 13.1298 79.8582 13.192 79.8485 13.259C79.8339 13.393 79.7612 13.4743 79.6206 13.4839C79.5381 13.4887 79.4557 13.4887 79.3733 13.4887C77.2978 13.4887 75.2224 13.4887 73.147 13.4887ZM77.2687 11.4356C76.585 8.57858 74.0344 7.45395 71.9201 7.48745C69.4859 7.53052 67.5801 8.98536 66.9158 11.4356C70.3636 11.4356 73.8064 11.4356 77.2687 11.4356Z" fill="#0F0F0F"/>
<path d="M39.2898 13.4898C39.3286 14.3703 39.4983 15.1839 39.896 15.9448C40.6282 17.3422 41.7241 18.3472 43.3001 18.7013C45.2737 19.1416 47.0533 18.6822 48.5905 17.3805C49.0027 17.0311 49.313 16.5909 49.6137 16.1458C49.7446 15.9496 49.8707 15.7486 49.9968 15.5524C50.1277 15.3514 50.2053 15.3274 50.4284 15.4375C50.5932 15.5189 50.7484 15.605 50.9133 15.6912C51.2188 15.8539 51.5291 16.0118 51.8346 16.1745C52.0528 16.2942 52.0868 16.3755 51.9849 16.5861C50.8793 18.7923 49.1627 20.2615 46.6945 20.7927C45.167 21.1181 43.6395 21.0607 42.1411 20.6204C40.827 20.2327 39.7408 19.5005 38.8631 18.4525C37.806 17.1891 37.1271 15.7629 36.9477 14.131C36.6858 11.7382 37.3404 9.61337 38.931 7.78046C40.2402 6.27298 41.9084 5.4642 43.9062 5.2967C45.23 5.18185 46.5296 5.31106 47.7516 5.82313C50.0889 6.80419 51.5776 8.53181 52.2419 10.9486C52.4311 11.6377 52.5183 12.346 52.528 13.0638C52.528 13.1356 52.5329 13.2074 52.5232 13.2792C52.5086 13.4036 52.4311 13.4754 52.305 13.485C52.2128 13.4898 52.1207 13.4898 52.0286 13.4898C47.8922 13.4898 43.7607 13.4898 39.6244 13.4898C39.5226 13.4898 39.4256 13.4898 39.2898 13.4898ZM39.5759 11.4319C43.0382 11.4319 46.4811 11.4319 49.9289 11.4319C49.3324 8.7998 47.0339 7.56032 44.8761 7.49332C42.4272 7.41197 40.3372 8.75673 39.5759 11.4319Z" fill="#0F0F0F"/>
<path d="M102.838 13.4898C100.763 13.4898 98.6875 13.4898 96.612 13.4898C96.3065 13.4898 96.2968 13.4132 96.3308 13.796C96.4423 15.002 96.8399 16.0979 97.6449 17.0311C98.4353 17.9452 99.41 18.5769 100.627 18.7684C102.48 19.0603 104.148 18.6152 105.583 17.4092C106.01 17.0503 106.33 16.5957 106.645 16.1362C106.781 15.9352 106.907 15.7247 107.043 15.5237C107.149 15.3657 107.241 15.3322 107.411 15.4232C107.906 15.6768 108.4 15.9352 108.885 16.1984C109.079 16.3037 109.099 16.3899 108.997 16.6004C108.769 17.0646 108.502 17.5049 108.192 17.9213C106.897 19.6585 105.161 20.6491 102.998 20.9171C101.801 21.0655 100.608 21.008 99.4342 20.7018C98.0765 20.3476 96.9369 19.6585 96.0156 18.6152C94.8809 17.3279 94.1535 15.8539 93.9644 14.1502C93.6977 11.7621 94.3475 9.6325 95.9332 7.7948C97.2473 6.27774 98.9202 5.46418 100.933 5.29668C102.256 5.18661 103.556 5.31104 104.778 5.82789C107.106 6.80895 108.589 8.52701 109.254 10.9342C109.448 11.6329 109.535 12.3508 109.54 13.0734C109.54 13.1356 109.545 13.1978 109.535 13.2648C109.52 13.3988 109.448 13.4802 109.307 13.4898C109.225 13.4945 109.142 13.4945 109.06 13.4945C106.994 13.4898 104.919 13.4898 102.838 13.4898ZM96.5975 11.4319C100.06 11.4319 103.503 11.4319 106.95 11.4319C106.359 8.80936 104.065 7.56031 101.902 7.49331C99.4633 7.41195 97.3685 8.74237 96.5975 11.4319Z" fill="#0F0F0F"/>
<path d="M54.9089 8.44453C54.9089 5.87941 54.9089 3.31908 54.9089 0.753957C54.9089 0.299319 54.9332 0.275391 55.3841 0.275391C55.8496 0.275391 56.3152 0.275391 56.7855 0.275391C57.2365 0.275391 57.2559 0.294533 57.2559 0.753957C57.2559 2.46723 57.2559 4.18528 57.2559 5.89855C57.2559 6.28619 57.2559 6.67383 57.2559 7.06147C57.2559 7.32947 57.2268 7.31032 57.5032 7.31032C58.3809 7.31032 59.2586 7.31032 60.1363 7.31032C60.1993 7.31032 60.2624 7.31032 60.3303 7.31032C60.7376 7.31032 60.7667 7.33904 60.7667 7.74103C60.7667 8.16696 60.7715 8.5881 60.7667 9.01402C60.7618 9.30595 60.7085 9.35859 60.4079 9.35859C59.4477 9.35859 58.4876 9.35859 57.5275 9.35859C57.2511 9.35859 57.2753 9.33466 57.2753 9.60266C57.2753 11.4691 57.2753 13.3403 57.2753 15.2067C57.2753 15.6757 57.2802 16.1447 57.3917 16.6041C57.5759 17.3698 57.9736 18.0015 58.5797 18.504C59.0065 18.8534 59.5302 18.9012 60.0587 18.8725C60.4176 18.8534 60.757 18.7481 61.0819 18.5901C61.1207 18.571 61.1643 18.5471 61.2031 18.5327C61.4068 18.4514 61.5038 18.4896 61.5862 18.6954C61.6783 18.9204 61.7559 19.1501 61.8432 19.3798C61.9402 19.6334 62.042 19.8823 62.1342 20.1359C62.1924 20.3034 62.1584 20.3991 61.9935 20.4613C61.0819 20.7916 60.1509 21.05 59.1616 20.9686C57.959 20.8729 56.9892 20.3369 56.2279 19.4181C55.3259 18.3365 54.9138 17.0827 54.9089 15.69C54.9041 13.2828 54.9041 10.8613 54.9089 8.44453Z" fill="#0F0F0F"/>
<path d="M82.8604 10.6608C82.8604 7.3826 82.8604 4.1092 82.8604 0.831012C82.8604 0.376372 82.8894 0.347656 83.3598 0.347656C83.8351 0.347656 84.3103 0.347656 84.7855 0.347656C85.1492 0.347656 85.2074 0.40987 85.2123 0.778367C85.2123 1.26651 85.2123 1.75465 85.2123 2.238C85.2123 8.31103 85.2123 14.3841 85.2123 20.4571C85.2123 20.9644 85.2026 20.9739 84.6934 20.9739C84.2182 20.9739 83.7429 20.9739 83.2677 20.9739C82.8991 20.9739 82.8652 20.9404 82.8652 20.5672C82.8652 17.5809 82.8652 14.5946 82.8652 11.6036C82.8604 11.2925 82.8604 10.9767 82.8604 10.6608Z" fill="#0F0F0F"/>
<path d="M90.9436 10.6704C90.9436 13.9486 90.9436 17.222 90.9436 20.5002C90.9436 20.9644 90.9291 20.9787 90.4733 20.9787C89.969 20.9787 89.4695 20.9787 88.9652 20.9787C88.6597 20.9787 88.6015 20.9165 88.5967 20.6102C88.5967 20.5672 88.5967 20.5193 88.5967 20.4762C88.5967 13.9438 88.5967 7.40653 88.5967 0.874081C88.5967 0.381156 88.6258 0.347656 89.1155 0.347656C89.581 0.347656 90.0465 0.347656 90.5169 0.347656C90.5896 0.347656 90.6624 0.352444 90.7351 0.362016C90.8612 0.376373 90.9339 0.452944 90.9436 0.577371C90.9485 0.668299 90.9485 0.759225 90.9485 0.850153C90.9436 4.11877 90.9436 7.39697 90.9436 10.6704Z" fill="#0F0F0F"/>
<path d="M112.12 16.4857C112.12 15.1936 112.12 13.9063 112.12 12.6141C112.12 12.0303 112.266 11.4704 112.45 10.92C112.881 9.64223 113.458 8.43624 114.428 7.46475C115.35 6.5459 116.436 5.88069 117.74 5.61269C118.24 5.51219 118.72 5.62227 119.19 5.78498C119.413 5.86155 119.631 5.96205 119.835 6.08169C120.015 6.18697 120.044 6.28747 119.942 6.46454C119.641 6.95747 119.326 7.4456 119.02 7.93853C118.943 8.06295 118.831 8.10602 118.691 8.05817C117.988 7.82367 117.367 8.0151 116.824 8.46016C115.854 9.25459 115.117 10.2165 114.777 11.4321C114.656 11.8676 114.622 12.3222 114.588 12.7721C114.511 13.7723 114.486 14.7725 114.482 15.7775C114.477 17.3567 114.482 18.936 114.482 20.5153C114.482 20.9364 114.462 20.9555 114.031 20.9555C113.517 20.9555 113.007 20.9555 112.493 20.9555C112.169 20.9555 112.11 20.8933 112.11 20.5775C112.12 19.2136 112.12 17.8496 112.12 16.4857Z" fill="#0F0F0F"/>
</svg>
